<?xml version="1.0" encoding="utf-8"?>
<!-- Generator: Adobe Illustrator 15.0.2, SVG Export Plug-In . SVG Version: 6.00 Build 0)  -->
<!DOCTYPE svg PUBLIC "-//W3C//DTD SVG 1.1//EN" "http://www.w3.org/Graphics/SVG/1.1/DTD/svg11.dtd">
<svg version="1.1" id="Layer_1" xmlns="http://www.w3.org/2000/svg" xmlns:xlink="http://www.w3.org/1999/xlink" x="0px" y="0px"
	 width="385px" height="385px" viewBox="177.995 264.76 385 385" enable-background="new 177.995 264.76 385 385"
	 xml:space="preserve">
<title>Running Icon on Transparent Background</title>
<g>
	<title>Layer 1</title>
	<path id="path8248" fill="#231F20" d="M467.849,335.245c17.783,0,32.205-14.471,32.205-32.255s-14.422-32.207-32.205-32.207
		c-17.834,0-32.256,14.422-32.256,32.207S450.015,335.245,467.849,335.245"/>
	<path id="path8256" fill="#231F20" d="M356.853,359.169l-50.137,57.933c-2.972,3.654-7.455,5.896-12.522,5.896
		c-8.965,0-16.225-7.26-16.225-16.177c0-4.872,2.095-9.209,5.457-12.181l54.084-62.269c2.973-3.557,7.455-5.847,12.522-5.847
		l78.251-0.049c5.75,0,10.914,2.339,14.715,5.993l49.893,49.894l41.367-41.27c2.924-2.485,6.676-3.947,10.768-3.947
		c9.258,0,16.713,7.504,16.713,16.762c0,4.044-1.365,7.698-3.752,10.622l-49.846,50.234c-15.152,15.105-27.334,2.29-27.334,2.29
		l-30.598-30.745l-47.799,55.302l43.803,43.803c0,0,9.258,8.576,3.947,25.629l-24.559,109.483
		c-1.947,9.502-10.328,16.664-20.365,16.664c-11.547,0-20.854-9.355-20.854-20.854c0-1.851,0.195-3.604,0.633-5.262l20.221-89.799
		l-49.796-48.384l-42.828,47.75c0,0-6.919,8.527-25.288,7.894l-86.875,0.146c-9.696,0.147-18.515-6.479-20.659-16.321
		c-2.583-11.207,4.336-22.22,15.591-24.703c1.755-0.391,3.509-0.536,5.214-0.488l74.694,0.195l110.458-128.047L356.853,359.169z"/>
</g>
</svg>
